<?xml version="1.0" encoding="UTF-8" standalone="no"?>
<!-- Created with Inkscape (http://www.inkscape.org/) -->

<svg
   width="2127.2583"
   height="389.01172"
   viewBox="0 0 2127.2583 389.01173"
   version="1.1"
   id="svg1"
   xml:space="preserve"
   inkscape:version="1.4.2 (f4327f4, 2025-05-13)"
   sodipodi:docname="astryvra_engine_logo_name.svg"
   xmlns:inkscape="http://www.inkscape.org/namespaces/inkscape"
   xmlns:sodipodi="http://sodipodi.sourceforge.net/DTD/sodipodi-0.dtd"
   xmlns="http://www.w3.org/2000/svg"
   xmlns:svg="http://www.w3.org/2000/svg"><sodipodi:namedview
     id="namedview1"
     pagecolor="#000000"
     bordercolor="#000000"
     borderopacity="0.25"
     inkscape:showpageshadow="false"
     inkscape:pageopacity="0.0"
     inkscape:pagecheckerboard="true"
     inkscape:deskcolor="#d1d1d1"
     inkscape:document-units="px"
     inkscape:zoom="1.8478216"
     inkscape:cx="289.53012"
     inkscape:cy="228.64762"
     inkscape:window-width="2400"
     inkscape:window-height="1321"
     inkscape:window-x="2391"
     inkscape:window-y="-9"
     inkscape:window-maximized="1"
     inkscape:current-layer="layer1"
     showborder="true"
     labelstyle="default" /><defs
     id="defs1" /><g
     inkscape:label="Vrstva 1"
     inkscape:groupmode="layer"
     id="layer1"
     style="display:inline"
     transform="translate(-43.286858,-5.6269531)"><path
       id="path1"
       style="fill:#ffffff;fill-opacity:1;stroke:#ff0000;stroke-width:0;stroke-dasharray:none;stroke-opacity:0.497992"
       d="M 230.07422,5.6269531 C 214.03691,14.224114 195.04701,33.978171 189.02148,40.40625 c -15.33419,16.358644 -19.46484,23.431641 -19.46484,23.431641 -5.18528,0.528588 -16.69663,3.74014 -17.98828,4.15039 -29.24378,9.288333 -55.089586,27.592799 -72.785157,49.078129 0,0 13.516185,-7.44885 24.353517,-9.8711 4.1352,-0.92426 5.57714,-1.61705 23.43164,-3.50586 -18.20712,8.0018 -24.90879,12.02937 -32.011719,17.06641 -16.755828,11.88237 -33.571882,27.66357 -43.81836,51.56836 -11.119633,25.94184 -6.5,45.25586 -6.5,45.25586 0,0 4.546601,-13.28154 10.138672,-21.99414 5.00988,-7.80552 12.516871,-17.74452 24.958985,-26.95117 8.756225,-6.47925 18.080078,-10.33204 18.080078,-10.33204 0,0 -12.452742,12.11561 -19.556641,21.40235 -11.873136,15.52143 -17.987721,34.55709 -18.839844,37.50195 -2.624049,9.0685 -4.909763,26.55471 -1.416015,40.90625 5.190233,21.32034 17.484586,36.81823 36.5625,49.10352 13.354124,8.59944 29.082034,12.61718 29.082034,12.61718 0,0 -15.89654,-14.56194 -24.447269,-30.8125 -7.556938,-14.36185 -8.626138,-31.42493 -8.580078,-35.05468 0.126209,-9.94651 2.767578,-21.125 2.767578,-21.125 -0.167293,14.05563 9.348499,33.41158 11.347659,37.36132 14.46465,28.57784 47.46532,37.21996 74.63086,56.0879 26.04756,18.09144 30.13074,28.21288 33.89258,39.04882 1.67596,4.82748 1.72656,11.10938 1.72656,11.10938 0,0 5.68922,-8.52027 8.35547,-18.16602 2.37714,-8.59985 -0.51957,-22.46875 -0.51953,-22.46875 3.9009,4.33843 7.42389,14.72624 7.40429,22.13867 -0.0316,11.93688 -5.21672,29.71716 -9.8789,36.68555 38.93793,-28.69656 40.43995,-62.32076 41.67578,-67.97851 4.05433,-18.56127 -4.75391,-43.89649 -4.75391,-43.89649 0,0 8.3763,8.15895 12.40039,20.63477 3.57051,11.06961 5.38543,23.76091 5.20117,27.92187 0,0 6.72145,-10.42114 7.75196,-23.75 0.95059,-12.29518 -1.17527,-25.98163 -6.02539,-35.82226 -3.27869,-6.65229 -4.77332,-10.71544 -10.94532,-18.0586 -6.66669,-7.93171 -20.58975,-19.63923 -28.30468,-32.00976 -3.62164,-5.80713 -6.24882,-10.04576 -6.50391,-17.06641 -0.51248,-14.10488 19.09611,-14.58712 27.58203,-14.29883 12.81972,0.43553 22.25019,2.27021 29.15234,3.41211 14.04681,2.32392 21.64077,6.81377 28.32032,6.82617 13.19431,0.0246 21.81086,-7.64413 25,-10.70117 5.53098,-5.30187 6.94299,-11.85698 11.71679,-13.09961 5.48962,-1.42895 12.20541,-11.04839 11.90039,-15.95898 -0.293,-4.7169 -21.79922,-12.66123 -32.94335,-18.74414 -18.43257,-10.06121 -30.48061,-16.81059 -36.2461,-22.49219 -2.80596,-2.76513 -2.80617,-10.98483 -3.41211,-15.3125 -0.3164,-2.25972 -20.14064,-17.010881 -32.01172,-25.093749 C 242.49825,67.572786 232.75,62.638672 232.75,62.638672 c 0,0 0.0213,-20.416995 0,-22.048828 C 232.59246,28.532006 231.65061,9.2195325 230.07422,5.6269531 Z M 215.68359,38.652344 c 0,0 -5.12564,16.522829 -4.98242,34.501953 0.0197,2.476694 1.29102,8.027344 1.29102,8.027344 0,0 -4.00379,-0.06964 -5.16602,-4.152344 -2.29364,-8.057142 -0.68924,-16.29462 1.56836,-23.800781 2.45299,-8.155804 7.28906,-14.576172 7.28906,-14.576172 z m 34.61914,71.355466 c 1.18174,0.01 2.43099,0.10995 3.66602,0.35938 5.70548,1.15227 12.65284,4.61699 15.83008,7.95312 3.1899,3.34943 8.47851,8.16211 8.47851,8.16211 0,0 -12.70871,0.0777 -22.14257,-5.04687 -7.2971,-3.96391 -10.9565,-8.46852 -12.30079,-10.67383 0,0 2.92354,-0.78282 6.46875,-0.75391 z m -96.24414,28 c -7.98394,10.21921 -22.81994,31.60245 -15.01757,60.38281 4.87398,17.97853 13.55849,29.35768 24.42773,38.69336 16.46577,14.14258 34.74283,23.24257 49.9375,39.88868 13.57421,14.87087 18.88086,36.31054 18.88086,36.31054 0,0 -6.98025,-15.84284 -21.76953,-30.4414 -7.44983,-7.35375 -24.56629,-19.50447 -38.00781,-27.49219 -15.67118,-9.31271 -32.27902,-23.44756 -39.66797,-40.95899 -6.55385,-15.53226 -9.68595,-32.24974 -1.47657,-50.68359 6.51695,-14.63356 22.69336,-25.69922 22.69336,-25.69922 z m 94.16797,22.05664 c 0,0 31.15351,11.85086 51.72656,17.78516 13.31815,3.8416 19.82032,5.10937 19.82032,5.10937 0,0 -1.67643,0.73851 -3.20313,0.45508 -2.11457,-0.39257 -3.64258,-0.79101 -3.64258,-0.79101 0,0 -0.37491,0.70149 -0.5332,0.92968 -1.161,1.67378 -2.92421,2.16016 -2.92421,2.16016 0,0 -0.67113,-1.11261 -0.63243,-3.16211 0.006,-0.34906 0.0391,-0.91016 0.0391,-0.91016 0,10e-6 -12.62109,-3.5647 -22.70898,-7.21484 -7.51247,-2.71826 -37.94141,-14.36133 -37.94141,-14.36133 z m -88.07812,29.97266 c 0,0 0.4563,9.85505 5.90234,17.71289 12.6002,18.18026 26.34841,26.39756 43.82031,37.54492 14.43789,9.2116 20.66407,18.26563 20.66407,18.26563 0,0 -12.06665,-9.37299 -34.50196,-20.01758 -14.20247,-6.73846 -25.9977,-19.38404 -29.88867,-26.19922 -10.60799,-18.58031 -5.99609,-27.30664 -5.99609,-27.30664 z"
       sodipodi:nodetypes="cscscscsscsscsssscsscssscscscscscsssssssssssssssccccscsscssscscscssscssssccscscscccsccsscsscs" /><text
       xml:space="preserve"
       style="font-weight:bold;font-size:346.667px;font-family:'Cascadia Code';-inkscape-font-specification:'Cascadia Code Bold';text-align:start;writing-mode:lr-tb;direction:ltr;text-anchor:start;fill:#ffffff;stroke:#ff0000;stroke-width:1.2e-07"
       x="398.27786"
       y="327.6785"
       id="text1"><tspan
         sodipodi:role="line"
         id="tspan1"
         x="398.27786"
         y="327.6785"
         style="font-style:normal;font-variant:normal;font-weight:300;font-stretch:normal;font-size:346.667px;font-family:'Perpetua Titling MT';-inkscape-font-specification:'Perpetua Titling MT Light'">Astryvra</tspan></text></g></svg>
