<?xml version="1.0" encoding="UTF-8" standalone="no"?>
<!-- Created with Inkscape (http://www.inkscape.org/) -->

<svg
   width="2163.6248"
   height="389.01172"
   viewBox="0 0 2163.6248 389.01173"
   version="1.1"
   id="svg1"
   xml:space="preserve"
   inkscape:version="1.4.2 (f4327f4, 2025-05-13)"
   sodipodi:docname="astryvra_engine_logo_name_light.svg"
   xmlns:inkscape="http://www.inkscape.org/namespaces/inkscape"
   xmlns:sodipodi="http://sodipodi.sourceforge.net/DTD/sodipodi-0.dtd"
   xmlns="http://www.w3.org/2000/svg"
   xmlns:svg="http://www.w3.org/2000/svg"><sodipodi:namedview
     id="namedview1"
     pagecolor="#000000"
     bordercolor="#000000"
     borderopacity="0.25"
     inkscape:showpageshadow="false"
     inkscape:pageopacity="0.0"
     inkscape:pagecheckerboard="true"
     inkscape:deskcolor="#d1d1d1"
     inkscape:document-units="px"
     inkscape:zoom="0.32665179"
     inkscape:cx="1080.6615"
     inkscape:cy="35.205685"
     inkscape:window-width="1920"
     inkscape:window-height="991"
     inkscape:window-x="-9"
     inkscape:window-y="-9"
     inkscape:window-maximized="1"
     inkscape:current-layer="text1"
     showborder="true"
     labelstyle="default" /><defs
     id="defs1" /><g
     inkscape:label="Vrstva 1"
     inkscape:groupmode="layer"
     id="layer1"
     style="display:inline"
     transform="translate(-43.286858,-5.6269531)"><path
       id="path1"
       style="fill:#ffffff;fill-opacity:1;stroke:#ff0000;stroke-width:0;stroke-dasharray:none;stroke-opacity:0.497992"
       d="M 230.07422,5.6269531 C 214.03691,14.224114 195.04701,33.978171 189.02148,40.40625 c -15.33419,16.358644 -19.46484,23.431641 -19.46484,23.431641 -5.18528,0.528588 -16.69663,3.74014 -17.98828,4.15039 -29.24378,9.288333 -55.089586,27.592799 -72.785157,49.078129 0,0 13.516185,-7.44885 24.353517,-9.8711 4.1352,-0.92426 5.57714,-1.61705 23.43164,-3.50586 -18.20712,8.0018 -24.90879,12.02937 -32.011719,17.06641 -16.755828,11.88237 -33.571882,27.66357 -43.81836,51.56836 -11.119633,25.94184 -6.5,45.25586 -6.5,45.25586 0,0 4.546601,-13.28154 10.138672,-21.99414 5.00988,-7.80552 12.516871,-17.74452 24.958985,-26.95117 8.756225,-6.47925 18.080078,-10.33204 18.080078,-10.33204 0,0 -12.452742,12.11561 -19.556641,21.40235 -11.873136,15.52143 -17.987721,34.55709 -18.839844,37.50195 -2.624049,9.0685 -4.909763,26.55471 -1.416015,40.90625 5.190233,21.32034 17.484586,36.81823 36.5625,49.10352 13.354124,8.59944 29.082034,12.61718 29.082034,12.61718 0,0 -15.89654,-14.56194 -24.447269,-30.8125 -7.556938,-14.36185 -8.626138,-31.42493 -8.580078,-35.05468 0.126209,-9.94651 2.767578,-21.125 2.767578,-21.125 -0.167293,14.05563 9.348499,33.41158 11.347659,37.36132 14.46465,28.57784 47.46532,37.21996 74.63086,56.0879 26.04756,18.09144 30.13074,28.21288 33.89258,39.04882 1.67596,4.82748 1.72656,11.10938 1.72656,11.10938 0,0 5.68922,-8.52027 8.35547,-18.16602 2.37714,-8.59985 -0.51957,-22.46875 -0.51953,-22.46875 3.9009,4.33843 7.42389,14.72624 7.40429,22.13867 -0.0316,11.93688 -5.21672,29.71716 -9.8789,36.68555 38.93793,-28.69656 40.43995,-62.32076 41.67578,-67.97851 4.05433,-18.56127 -4.75391,-43.89649 -4.75391,-43.89649 0,0 8.3763,8.15895 12.40039,20.63477 3.57051,11.06961 5.38543,23.76091 5.20117,27.92187 0,0 6.72145,-10.42114 7.75196,-23.75 0.95059,-12.29518 -1.17527,-25.98163 -6.02539,-35.82226 -3.27869,-6.65229 -4.77332,-10.71544 -10.94532,-18.0586 -6.66669,-7.93171 -20.58975,-19.63923 -28.30468,-32.00976 -3.62164,-5.80713 -6.24882,-10.04576 -6.50391,-17.06641 -0.51248,-14.10488 19.09611,-14.58712 27.58203,-14.29883 12.81972,0.43553 22.25019,2.27021 29.15234,3.41211 14.04681,2.32392 21.64077,6.81377 28.32032,6.82617 13.19431,0.0246 21.81086,-7.64413 25,-10.70117 5.53098,-5.30187 6.94299,-11.85698 11.71679,-13.09961 5.48962,-1.42895 12.20541,-11.04839 11.90039,-15.95898 -0.293,-4.7169 -21.79922,-12.66123 -32.94335,-18.74414 -18.43257,-10.06121 -30.48061,-16.81059 -36.2461,-22.49219 -2.80596,-2.76513 -2.80617,-10.98483 -3.41211,-15.3125 -0.3164,-2.25972 -20.14064,-17.010881 -32.01172,-25.093749 C 242.49825,67.572786 232.75,62.638672 232.75,62.638672 c 0,0 0.0213,-20.416995 0,-22.048828 C 232.59246,28.532006 231.65061,9.2195325 230.07422,5.6269531 Z M 215.68359,38.652344 c 0,0 -5.12564,16.522829 -4.98242,34.501953 0.0197,2.476694 1.29102,8.027344 1.29102,8.027344 0,0 -4.00379,-0.06964 -5.16602,-4.152344 -2.29364,-8.057142 -0.68924,-16.29462 1.56836,-23.800781 2.45299,-8.155804 7.28906,-14.576172 7.28906,-14.576172 z m 34.61914,71.355466 c 1.18174,0.01 2.43099,0.10995 3.66602,0.35938 5.70548,1.15227 12.65284,4.61699 15.83008,7.95312 3.1899,3.34943 8.47851,8.16211 8.47851,8.16211 0,0 -12.70871,0.0777 -22.14257,-5.04687 -7.2971,-3.96391 -10.9565,-8.46852 -12.30079,-10.67383 0,0 2.92354,-0.78282 6.46875,-0.75391 z m -96.24414,28 c -7.98394,10.21921 -22.81994,31.60245 -15.01757,60.38281 4.87398,17.97853 13.55849,29.35768 24.42773,38.69336 16.46577,14.14258 34.74283,23.24257 49.9375,39.88868 13.57421,14.87087 18.88086,36.31054 18.88086,36.31054 0,0 -6.98025,-15.84284 -21.76953,-30.4414 -7.44983,-7.35375 -24.56629,-19.50447 -38.00781,-27.49219 -15.67118,-9.31271 -32.27902,-23.44756 -39.66797,-40.95899 -6.55385,-15.53226 -9.68595,-32.24974 -1.47657,-50.68359 6.51695,-14.63356 22.69336,-25.69922 22.69336,-25.69922 z m 94.16797,22.05664 c 0,0 31.15351,11.85086 51.72656,17.78516 13.31815,3.8416 19.82032,5.10937 19.82032,5.10937 0,0 -1.67643,0.73851 -3.20313,0.45508 -2.11457,-0.39257 -3.64258,-0.79101 -3.64258,-0.79101 0,0 -0.37491,0.70149 -0.5332,0.92968 -1.161,1.67378 -2.92421,2.16016 -2.92421,2.16016 0,0 -0.67113,-1.11261 -0.63243,-3.16211 0.006,-0.34906 0.0391,-0.91016 0.0391,-0.91016 0,10e-6 -12.62109,-3.5647 -22.70898,-7.21484 -7.51247,-2.71826 -37.94141,-14.36133 -37.94141,-14.36133 z m -88.07812,29.97266 c 0,0 0.4563,9.85505 5.90234,17.71289 12.6002,18.18026 26.34841,26.39756 43.82031,37.54492 14.43789,9.2116 20.66407,18.26563 20.66407,18.26563 0,0 -12.06665,-9.37299 -34.50196,-20.01758 -14.20247,-6.73846 -25.9977,-19.38404 -29.88867,-26.19922 -10.60799,-18.58031 -5.99609,-27.30664 -5.99609,-27.30664 z"
       sodipodi:nodetypes="cscscscsscsscsssscsscssscscscscscsssssssssssssssccccscsscssscscscssscssssccscscscccsccsscsscs" /><g
       id="text1"
       style="font-weight:bold;font-size:346.667px;font-family:'Cascadia Code';-inkscape-font-specification:'Cascadia Code Bold';stroke:#ff0000;stroke-width:1.2e-07"
       aria-label="Astryvra"><path
         style="font-weight:300;font-size:373.333px;font-family:'Perpetua Titling MT';-inkscape-font-specification:'Perpetua Titling MT Light';opacity:1;fill:#ffffff;fill-opacity:1"
         d="m 534.08504,60.933709 80.39055,230.051881 q 6.3802,17.86457 12.03124,25.8854 5.65104,8.02082 10.7552,10.20832 5.28645,2.00521 13.30728,2.73437 v 2.91667 h -87.68222 v -2.91667 q 13.48958,0 20.78124,-2.55208 7.29166,-2.55208 7.29166,-13.85415 0,-6.19791 -3.46354,-16.58853 -0.72917,-1.45833 -0.72917,-2.1875 l -23.88019,-71.27598 h -92.96866 l -21.32811,65.98953 q -4.375,13.48957 -4.375,21.69269 0,11.30207 5.65104,15.13019 5.65104,3.64583 16.04165,3.64583 v 2.91667 h -63.07286 v -2.91667 q 13.48957,-1.27604 21.5104,-10.20832 8.20312,-9.11458 14.21874,-27.52602 L 514.39755,60.933709 Z M 473.01738,213.69399 H 558.5121 L 514.76214,86.272228 h -0.72917 z"
         id="path4" /><path
         style="font-weight:300;font-family:'Perpetua Titling MT';-inkscape-font-specification:'Perpetua Titling MT Light';fill:#ffffff;fill-opacity:1"
         d="m 795.79078,131.29787 h -2.70833 q -2.3698,-18.112 -15.91148,-31.65368 -13.37241,-13.71095 -35.37764,-13.71095 -14.38803,0 -25.55991,6.77084 -11.17189,6.770839 -17.26565,18.45054 -6.09375,11.6797 -6.09375,26.74481 0,11.6797 3.55469,20.82034 3.72396,8.97136 10.83334,15.91147 7.10938,6.94011 16.75783,13.03387 9.64845,5.92448 26.06773,15.06511 27.4219,15.06512 42.65629,30.13024 15.23439,14.89585 15.23439,40.96358 0,15.91147 -8.29428,30.80732 -8.125,14.72658 -24.71356,24.20575 -16.58856,9.47918 -41.13285,9.47918 -15.40366,0 -27.25263,-3.38542 -11.84897,-3.21615 -24.03648,-9.14063 -5.07813,-1.69271 -6.94011,-1.69271 -3.55469,0 -4.73959,2.53906 -1.01563,2.53907 -2.87761,11.00262 h -2.8776 v -62.461 h 2.8776 q 6.09376,27.4219 23.69794,41.47139 17.60418,14.04949 42.82556,14.04949 18.95835,0 30.29951,-7.10938 11.51043,-7.10938 15.91147,-17.26564 4.40105,-10.15626 4.40105,-20.31252 0,-20.9896 -12.8646,-34.19274 -12.69532,-13.37241 -38.76305,-27.25263 -17.94273,-9.81771 -26.57555,-15.23439 -8.63282,-5.41667 -17.60418,-14.04949 -8.80209,-8.63282 -14.0495,-20.31252 -5.2474,-11.84897 -5.2474,-27.08336 0,-17.60418 9.30991,-33.68492 9.3099,-16.080749 26.40627,-25.729195 17.09637,-9.817718 38.76306,-9.817718 16.41929,0 33.68493,5.585943 2.70833,1.354168 7.27865,1.354168 5.58594,0 7.6172,-7.617195 h 2.70833 z m 247.30492,0.67708 h -2.7084 q -1.8619,-24.37502 -14.2187,-31.4844 -12.3568,-7.278657 -30.4688,-7.278657 H 946.1034 V 302.60011 q 0,26.57555 27.08336,27.4219 v 2.70834 h -79.38809 v -2.70834 q 11.17188,-0.33854 18.78908,-6.4323 7.78646,-6.26302 7.78646,-20.9896 V 93.211893 h -49.5964 q -18.112,0 -30.46878,7.278657 -12.18751,7.10938 -14.21876,31.4844 h -2.70834 V 71.037393 h 2.70834 q 2.70833,4.231774 4.73959,6.263026 2.03125,2.031252 5.2474,3.554691 3.21615,1.354168 7.44792,2.031252 4.40105,0.507813 10.32553,0.507813 h 161.48449 q 16.0808,0 25.0521,-12.356782 h 2.7084 z m 21.1589,-45.026084 h -3.3855 v -3.554691 h 86.3282 q 20.8204,0 35.2084,6.432298 14.5573,6.432297 22.5131,16.419287 8.125,9.81772 11.5104,20.82033 3.5547,11.00262 3.5547,21.66669 0,13.54168 -5.7552,26.06773 -5.586,12.35678 -17.435,21.32815 -11.6797,8.97136 -29.2838,12.18751 v 0.67708 q 22.3437,10.83334 41.3021,42.99483 l 22.513,38.08598 q 15.2344,25.55992 24.3751,32.33076 9.3099,6.77084 18.2812,7.61719 v 2.70834 h -45.3646 q -2.8776,-3.72397 -5.4167,-7.10938 -2.539,-3.5547 -5.4166,-7.44793 -1.6928,-2.53906 -5.0782,-7.61719 -3.2161,-5.2474 -3.8932,-5.92449 l -29.7917,-49.25786 q -8.9714,-15.06512 -18.4505,-24.37502 -9.3099,-9.47918 -17.435,-13.54168 -8.125,-4.0625 -14.7265,-5.07813 -6.4323,-1.01562 -15.2344,-1.01562 v 91.23706 q 0,26.57555 27.0833,27.4219 v 2.70834 h -79.3881 v -2.70834 q 7.448,-0.33854 13.2032,-2.70834 5.7552,-2.53906 9.4792,-8.46354 3.8932,-6.09376 3.8932,-16.25002 V 114.03222 q 0,-14.895843 -7.2787,-20.989598 -7.2786,-6.093756 -15.9114,-6.093756 z m 48.9193,117.812614 h 14.2187 q 22.3438,0 36.5626,-6.4323 14.388,-6.4323 20.8203,-18.28127 6.4323,-12.01824 6.4323,-29.28388 0,-14.38803 -5.7552,-28.09898 -5.7552,-13.88023 -19.6354,-23.190131 -13.711,-9.479175 -37.0704,-9.479175 -9.4792,0 -15.5729,1.523439 z M 1484.893,83.394175 v 2.877607 q -11.1719,0.169271 -19.974,5.247401 -8.6328,5.078129 -13.5416,10.664077 -4.9089,5.41667 -10.4948,13.20313 l -58.2293,87.68238 v 99.86988 q 0,13.37241 7.9558,20.14325 8.125,6.60157 19.4661,6.94011 v 2.70834 h -79.0495 v -2.70834 q 12.0182,-0.33854 18.9583,-6.77084 7.1094,-6.60157 7.1094,-20.31252 v -95.63811 l -63.4766,-95.1303 q -10.1563,-15.403657 -18.2813,-20.481786 -7.9557,-5.07813 -21.6667,-5.416672 v -2.877607 h 88.5288 v 2.877607 q -13.5417,0.507813 -17.4349,5.924485 -3.724,5.2474 -3.724,9.986993 0,5.41667 6.6016,15.23438 l 51.9662,77.01831 46.0417,-69.40111 q 10.4948,-15.57293 10.4948,-23.86721 0,-5.755214 -2.8776,-8.971363 -2.7084,-3.216149 -5.586,-4.231775 -2.8776,-1.015626 -6.0937,-1.69271 v -2.877607 z m 238.5028,0 v 2.877607 q -9.4792,1.184897 -15.7422,6.432298 -6.2631,5.2474 -10.6641,13.71095 -4.4011,8.29428 -9.987,22.1745 -0.8464,0.84635 -1.6927,4.0625 l -72.1095,206.67989 h -2.3698 l -84.974,-223.60699 q 0,-0.67708 -0.6771,-2.03125 -4.9088,-14.388032 -13.0338,-20.9896 -7.9558,-6.601569 -19.974,-6.432298 v -2.877607 h 81.9271 v 2.877607 q -10.3255,1.015626 -16.5885,4.062504 -6.263,3.046878 -6.263,14.557304 0,3.04688 2.7083,12.52605 0.3385,0.84636 0.5078,1.86199 0.3386,0.84635 0.5078,1.35416 L 1620.479,295.66 h 0.6771 l 56.1979,-163.00797 q 5.9245,-16.75782 5.9245,-25.22137 0,-13.372412 -5.7552,-16.927103 -5.5859,-3.554691 -16.7578,-4.231775 v -2.877607 z m 19.1277,3.554691 h -3.3854 v -3.554691 h 86.3282 q 20.8203,0 35.2083,6.432298 14.5573,6.432297 22.5131,16.419287 8.125,9.81772 11.5104,20.82033 3.5547,11.00262 3.5547,21.66669 0,13.54168 -5.7552,26.06773 -5.586,12.35678 -17.4349,21.32815 -11.6797,8.97136 -29.2839,12.18751 v 0.67708 q 22.3438,10.83334 41.3021,42.99483 l 22.5131,38.08598 q 15.2343,25.55992 24.375,32.33076 9.3099,6.77084 18.2812,7.61719 v 2.70834 h -45.3646 q -2.8776,-3.72397 -5.4167,-7.10938 -2.539,-3.5547 -5.4166,-7.44793 -1.6927,-2.53906 -5.0782,-7.61719 -3.2161,-5.2474 -3.8932,-5.92449 l -29.7917,-49.25786 q -8.9713,-15.06512 -18.4505,-24.37502 -9.3099,-9.47918 -17.4349,-13.54168 -8.125,-4.0625 -14.7266,-5.07813 -6.4323,-1.01562 -15.2344,-1.01562 v 91.23706 q 0,26.57555 27.0834,27.4219 v 2.70834 h -79.3881 v -2.70834 q 7.4479,-0.33854 13.2031,-2.70834 5.7552,-2.53906 9.4792,-8.46354 3.8932,-6.09376 3.8932,-16.25002 V 114.03222 q 0,-14.895843 -7.2786,-20.989598 -7.2787,-6.093756 -15.9115,-6.093756 z m 48.9193,117.812614 h 14.2188 q 22.3437,0 36.5625,-6.4323 14.388,-6.4323 20.8203,-18.28127 6.4323,-12.01824 6.4323,-29.28388 0,-14.38803 -5.7552,-28.09898 -5.7552,-13.88023 -19.6354,-23.190131 -13.711,-9.479175 -37.0704,-9.479175 -9.4791,0 -15.5729,1.523439 z"
         id="path5" /><path
         style="font-weight:300;font-size:373.333px;font-family:'Perpetua Titling MT';-inkscape-font-specification:'Perpetua Titling MT Light';fill:#ffffff;fill-opacity:1"
         d="m 2090.4272,60.933709 80.3906,230.051881 q 6.3802,17.86457 12.0312,25.8854 5.651,8.02082 10.7552,10.20832 5.2864,2.00521 13.3073,2.73437 v 2.91667 h -87.6822 v -2.91667 q 13.4895,0 20.7812,-2.55208 7.2916,-2.55208 7.2916,-13.85415 0,-6.19791 -3.4635,-16.58853 -0.7292,-1.45833 -0.7292,-2.1875 l -23.8801,-71.27598 h -92.9687 l -21.3281,65.98953 q -4.375,13.48957 -4.375,21.69269 0,11.30207 5.651,15.13019 5.6511,3.64583 16.0417,3.64583 v 2.91667 h -63.0729 v -2.91667 q 13.4896,-1.27604 21.5104,-10.20832 8.2031,-9.11458 14.2187,-27.52602 l 75.8333,-231.145631 z m -61.0677,152.760281 h 85.4948 l -43.75,-127.421762 h -0.7292 z"
         id="path6" /></g></g></svg>
